<svg width="743" height="743" viewBox="0 0 743 743" fill="none" xmlns="http://www.w3.org/2000/svg">
<path fill-rule="evenodd" clip-rule="evenodd" d="M0.251465 372.058C0.251465 176.487 156.548 0.250488 372.244 0.250488C583.114 0.250488 742.751 173.141 742.751 370.943C742.751 600.348 555.641 742.751 371.501 742.751C310.616 742.751 243.049 726.391 188.846 694.416C169.913 682.89 153.949 674.338 133.53 681.03L58.5377 703.339C39.604 709.288 22.5265 694.416 28.0952 674.338L52.969 591.053C57.0527 579.527 56.3102 567.257 50.3702 557.59C18.4427 498.845 0.251465 434.522 0.251465 372.058ZM323.239 372.058C323.239 398.457 344.4 419.65 370.759 420.021C397.117 420.021 418.279 398.457 418.279 372.43C418.279 346.032 397.117 324.839 370.759 324.839C344.771 324.467 323.239 346.032 323.239 372.058ZM494.385 372.43C494.385 398.457 515.546 420.021 541.905 420.021C568.264 420.021 589.425 398.457 589.425 372.43C589.425 346.032 568.264 324.839 541.905 324.839C515.546 324.839 494.385 346.032 494.385 372.43ZM199.613 420.021C173.625 420.021 152.093 398.456 152.093 372.43C152.093 346.032 173.254 324.839 199.613 324.839C225.971 324.839 247.133 346.032 247.133 372.43C247.133 398.456 225.971 419.65 199.613 420.021Z" fill="url(#paint0_linear_366_105)"/>
<defs>
<linearGradient id="paint0_linear_366_105" x1="0.251465" y1="0.250488" x2="798.047" y2="65.3767" gradientUnits="userSpaceOnUse">
<stop stop-color="#34BE7C"/>
<stop offset="1" stop-color="#2EB6A5"/>
</linearGradient>
</defs>
</svg>
