<svg width="822" height="822" viewBox="0 0 822 822" fill="none" xmlns="http://www.w3.org/2000/svg">
<path fill-rule="evenodd" clip-rule="evenodd" d="M304.063 218.466C304.063 282.399 251.356 334.219 186.281 334.219C121.245 334.219 68.5 282.399 68.5 218.466C68.5 154.57 121.245 102.75 186.281 102.75C251.356 102.75 304.063 154.57 304.063 218.466ZM701.898 167.768C730.363 167.768 753.501 190.499 753.501 218.466C753.501 246.469 730.363 269.201 701.898 269.201H476.686C448.183 269.201 425.045 246.469 425.045 218.466C425.045 190.499 448.183 167.768 476.686 167.768H701.898ZM120.141 546.56H345.353C373.856 546.56 396.994 569.292 396.994 597.295C396.994 625.261 373.856 648.031 345.353 648.031H120.141C91.6377 648.031 68.5 625.261 68.5 597.295C68.5 569.292 91.6377 546.56 120.141 546.56ZM635.719 711.639C700.794 711.639 753.5 659.819 753.5 595.923C753.5 531.99 700.794 480.17 635.719 480.17C570.682 480.17 517.938 531.99 517.938 595.923C517.938 659.819 570.682 711.639 635.719 711.639Z" fill="url(#paint0_linear_366_54)"/>
<defs>
<linearGradient id="paint0_linear_366_54" x1="68.5" y1="102.75" x2="803.223" y2="170.225" gradientUnits="userSpaceOnUse">
<stop stop-color="#34BE7C"/>
<stop offset="1" stop-color="#2EB6A5"/>
</linearGradient>
</defs>
</svg>
