<svg width="24" height="24" viewBox="0 0 24 24" fill="none" xmlns="http://www.w3.org/2000/svg">
    <path fill-rule="evenodd" clip-rule="evenodd" d="M0.333252 10.4484C0.333252 4.8621 4.81365 0.333496 10.3405 0.333496C12.9946 0.333496 15.54 1.39917 17.4167 3.29609C19.2934 5.193 20.3477 7.76577 20.3477 10.4484C20.3477 16.0347 15.8673 20.5633 10.3405 20.5633C4.81365 20.5633 0.333252 16.0347 0.333252 10.4484ZM20.1822 18.5968L23.1626 21.0026H23.2143C23.8173 21.6121 23.8173 22.6003 23.2143 23.2097C22.6114 23.8192 21.6337 23.8192 21.0308 23.2097L18.5574 20.375C18.3236 20.1395 18.1922 19.8196 18.1922 19.4859C18.1922 19.1523 18.3236 18.8323 18.5574 18.5968C19.0084 18.1489 19.7312 18.1489 20.1822 18.5968Z" fill="#D1DAE5"/>
</svg>
