<svg width="743" height="707" viewBox="0 0 743 707" fill="none" xmlns="http://www.w3.org/2000/svg">
<path fill-rule="evenodd" clip-rule="evenodd" d="M514.422 0.838447C537.847 0.838447 561.236 4.14257 583.474 11.6047C720.503 56.1547 769.879 206.511 728.633 337.933C705.244 405.093 667.005 466.386 616.924 516.468C545.235 585.891 466.568 647.519 381.885 700.607L372.604 706.213L362.952 700.236C277.973 647.519 198.859 585.891 126.502 516.096C76.755 466.015 38.4791 405.093 14.7191 337.933C-27.2321 206.511 22.1441 56.1547 160.658 10.8251C171.424 7.11257 182.524 4.51382 193.662 3.06595H198.117C208.549 1.54382 218.907 0.838447 229.302 0.838447H233.385C256.774 1.54382 279.42 5.62757 301.361 13.0897H303.552C305.037 13.7951 306.15 14.5747 306.893 15.2801C315.097 17.9159 322.857 20.8859 330.282 24.9697L344.389 31.2809C347.798 33.099 351.624 35.877 354.931 38.2779C357.026 39.7991 358.913 41.1689 360.353 42.0472C360.959 42.4047 361.575 42.7641 362.195 43.1266C365.379 44.9847 368.694 46.9203 371.49 49.0638C412.736 17.5447 462.818 0.467197 514.422 0.838447ZM613.174 268.138C628.395 267.73 641.389 255.516 642.503 239.886V235.468C643.617 183.456 612.098 136.345 564.169 118.153C548.948 112.919 532.242 121.123 526.673 136.716C521.476 152.308 529.643 169.386 545.235 174.918C569.033 183.828 584.959 207.253 584.959 233.204V234.355C584.254 242.856 586.815 251.061 592.013 257.372C597.21 263.683 605.007 267.359 613.174 268.138Z" fill="#D1DAE6"/>
</svg>
