<svg width="360" height="720" viewBox="0 0 360 720" fill="none" xmlns="http://www.w3.org/2000/svg">
<rect width="360" height="720" fill="url(#paint0_linear_888_453)"/>
<path opacity="0.9" d="M182.905 247.04H146.236L116 285.207H152.857L161.032 274.823L182.905 247.04Z" fill="white"/>
<path opacity="0.6" d="M152.857 285.207L134.013 309.143H157.816C168.142 309.143 190.373 292.545 193.985 274.823H161.033L152.857 285.207Z" fill="white"/>
<path opacity="0.8" d="M228.903 240.571H194.485V270.005C194.485 271.613 194.311 273.222 193.985 274.823C190.373 292.545 168.142 309.143 157.816 309.143H207.995C234.693 309.143 261.712 269.358 228.903 240.571Z" fill="white"/>
<path opacity="0.8" d="M182.905 234.103H146.236L116 195.935H152.857L161.032 206.32L182.905 234.103Z" fill="white"/>
<path opacity="0.6" d="M152.857 195.935L134.013 172H157.816C168.142 172 190.373 188.597 193.985 206.32H161.033L152.857 195.935Z" fill="white"/>
<path d="M228.903 240.571H194.485V211.137C194.485 209.53 194.311 207.92 193.985 206.32C190.373 188.597 168.142 172 157.816 172H207.995C234.693 172 261.712 211.784 228.903 240.571Z" fill="white"/>
<path d="M110.445 378.904V345.496C114.189 345.304 117.581 345.208 120.621 345.208C124.333 345.208 127.133 345.96 129.021 347.464C130.941 348.936 131.901 350.968 131.901 353.56C131.901 356.856 130.621 359.352 128.061 361.048V361.144C129.501 361.688 130.653 362.616 131.517 363.928C132.413 365.24 132.861 366.872 132.861 368.824C132.861 372.184 131.677 374.76 129.309 376.552C126.973 378.312 123.901 379.192 120.093 379.192C115.645 379.192 112.429 379.096 110.445 378.904ZM121.101 365.416H118.125V371.704C118.829 371.896 119.693 371.992 120.717 371.992C123.693 371.992 125.181 370.808 125.181 368.44C125.181 366.424 123.821 365.416 121.101 365.416ZM120.525 352.408C119.949 352.408 119.149 352.472 118.125 352.6V358.696H120.669C123.037 358.696 124.221 357.608 124.221 355.432C124.221 354.504 123.869 353.768 123.165 353.224C122.461 352.68 121.581 352.408 120.525 352.408ZM137.67 362.2C137.67 357.24 139.318 353.112 142.614 349.816C145.942 346.488 150.246 344.824 155.526 344.824C160.774 344.824 165.046 346.408 168.342 349.576C171.702 352.744 173.382 356.952 173.382 362.2C173.382 367.256 171.686 371.416 168.294 374.68C164.934 377.944 160.678 379.576 155.526 379.576C150.31 379.576 146.022 377.992 142.662 374.824C139.334 371.656 137.67 367.448 137.67 362.2ZM145.83 362.2C145.83 365.048 146.774 367.464 148.662 369.448C150.518 371.4 152.806 372.376 155.526 372.376C158.598 372.376 160.982 371.432 162.678 369.544C164.374 367.592 165.222 365.144 165.222 362.2C165.222 359.16 164.294 356.712 162.438 354.856C160.55 352.968 158.246 352.024 155.526 352.024C152.71 352.024 150.39 352.968 148.566 354.856C146.742 356.744 145.83 359.192 145.83 362.2ZM215.077 345.4H222.469L213.013 379H205.669L198.661 357.4L191.749 379H184.405L174.469 345.4H183.157L188.821 366.616L195.109 345.4H202.837L209.317 366.616L215.077 345.4ZM245.557 345.4H253.861L241.957 365.32V379H234.277V365.32L222.469 345.4H231.253L238.453 358.12L245.557 345.4Z" fill="white"/>
<defs>
<linearGradient id="paint0_linear_888_453" x1="-45" y1="816" x2="-238.308" y2="527.642" gradientUnits="userSpaceOnUse">
<stop stop-color="#2CFFB3"/>
<stop offset="1" stop-color="#1BDEEB"/>
</linearGradient>
</defs>
</svg>
