<svg width="310" height="310" viewBox="0 0 310 310" fill="none" xmlns="http://www.w3.org/2000/svg">
<path d="M309.5 230.877V291.578C309.502 295.924 307.855 300.109 304.892 303.289C301.929 306.469 297.871 308.406 293.535 308.71C286.033 309.225 279.905 309.5 275.167 309.5C123.465 309.5 0.5 186.535 0.5 34.8333C0.5 30.0953 0.7575 23.9668 1.28967 16.465C1.5939 12.1295 3.53131 8.07068 6.71096 5.10768C9.89061 2.14468 14.0758 0.498036 18.422 0.500004H79.1233C81.2527 0.497848 83.3068 1.28725 84.8867 2.71485C86.4666 4.14246 87.4594 6.10634 87.6723 8.22501C88.0672 12.1733 88.4277 15.3148 88.771 17.701C92.1826 41.5098 99.174 64.6661 109.508 86.3848C111.139 89.8182 110.075 93.921 106.985 96.1183L69.9392 122.589C92.5898 175.367 134.65 217.427 187.428 240.078L213.864 203.101C214.945 201.59 216.522 200.507 218.319 200.039C220.117 199.572 222.021 199.75 223.701 200.543C245.417 210.858 268.567 217.832 292.368 221.229C294.754 221.572 297.895 221.95 301.809 222.328C303.925 222.545 305.885 223.539 307.309 225.119C308.733 226.698 309.52 228.75 309.517 230.877H309.5Z" fill="#818B9B"/>
</svg>
