<svg width="815" height="815" viewBox="0 0 815 815" fill="none" xmlns="http://www.w3.org/2000/svg">
<path d="M764.098 415.42C764.098 386.103 761.671 364.709 756.417 342.523H414.813V474.846H615.327C611.286 507.73 589.456 557.252 540.943 590.53L540.263 594.96L648.272 676.96L655.755 677.692C724.479 615.491 764.098 523.972 764.098 415.42Z" fill="#4285F4"/>
<path d="M414.79 764.063C513.025 764.063 595.494 732.367 655.731 677.695L540.92 590.532C510.196 611.53 468.96 626.189 414.79 626.189C318.576 626.189 236.915 563.99 207.805 478.018L203.538 478.373L91.2295 563.553L89.7607 567.554C149.591 684.032 272.488 764.063 414.79 764.063Z" fill="#34A853"/>
<path d="M207.827 478.02C200.146 455.834 195.7 432.061 195.7 407.499C195.7 382.935 200.146 359.165 207.422 336.979L207.219 332.254L93.5023 245.707L89.7817 247.441C65.1226 295.776 50.9731 350.053 50.9731 407.499C50.9731 464.945 65.1226 519.22 89.7817 567.555L207.827 478.02Z" fill="#FBBC05"/>
<path d="M414.792 188.808C483.112 188.808 529.197 217.729 555.476 241.898L658.159 143.644C595.095 86.1982 513.027 50.938 414.792 50.938C272.489 50.938 149.592 130.966 89.7607 247.442L207.402 336.98C236.916 251.009 318.577 188.808 414.792 188.808Z" fill="#EB4335"/>
</svg>
