<svg width="815" height="815" viewBox="0 0 815 815" fill="none" xmlns="http://www.w3.org/2000/svg">
<rect x="50.9375" y="50.938" width="713.125" height="713.125" rx="6" fill="#2789F6"/>
<path d="M583.828 466.947C578.342 459.502 577.112 451.967 580.111 444.331C587.592 423.96 696.555 294.575 651.163 294.575C619.971 294.99 582.46 294.575 552.556 294.575C547.004 295.927 543.412 298.84 541.165 304.767C523.678 345.088 502.28 394.294 470.919 425.918C466.793 429.245 464.22 429.103 459.52 427.873C437.522 404.713 460.978 325.366 447.601 294.013C444.964 287.876 439.193 285.104 433.288 283.543C403.422 276.425 335.212 280.662 324.082 294.99C320.901 299.086 320.457 301.321 322.754 301.688C333.358 303.361 340.865 307.363 345.283 313.69C353.618 332.046 359.76 429.821 335.212 429.821C310.663 429.821 271.077 333.865 260.203 307.265C257.309 299.255 249.942 294.663 242.179 293.308L169.553 293.863C156.787 293.863 149.652 300.161 154.177 312.848C192.004 406.744 274.782 588.746 401.742 584.19C414.46 584.19 436.34 589.072 446.273 578.046C459.924 559.937 443.276 527.684 466.683 515.383C472.586 512.242 478.705 514.875 483.776 518.737C509.812 538.562 523.635 573.358 555.743 583.922C561.388 585.781 566.335 586.247 570.582 585.317L638.434 584.202C651.032 584.202 663.441 578.597 660.834 563.537C650.942 531.24 611.524 498.041 583.828 466.947Z" fill="white"/>
</svg>
